<?xml version="1.0" standalone="no"?>
<!DOCTYPE svg PUBLIC "-//W3C//DTD SVG 20010904//EN"
 "http://www.w3.org/TR/2001/REC-SVG-20010904/DTD/svg10.dtd">
<svg version="1.0" xmlns="http://www.w3.org/2000/svg"
 width="1155.000000pt" height="1155.000000pt" viewBox="0 0 1155.000000 1155.000000"
 preserveAspectRatio="xMidYMid meet">

<g transform="translate(0.000000,1155.000000) scale(0.100000,-0.100000)"
fill="#000000" stroke="none">
<path d="M9063 11256 c-28 -6 -55 -14 -59 -18 -4 -5 -17 -8 -28 -9 -12 0 -34
-9 -51 -20 -16 -10 -39 -23 -50 -28 -47 -21 -163 -106 -204 -149 -110 -119
-171 -204 -171 -242 0 -10 -5 -20 -11 -22 -35 -12 -35 -367 0 -473 40 -121 61
-168 81 -182 27 -19 70 -66 70 -76 0 -5 24 -32 53 -61 37 -37 70 -59 114 -75
56 -21 61 -25 50 -42 -6 -10 -14 -19 -18 -19 -19 0 -63 -121 -80 -221 -11 -62
-24 -118 -30 -125 -7 -8 -8 -70 -5 -181 3 -92 8 -346 11 -563 6 -497 15 -752
26 -766 5 -6 12 -44 15 -85 6 -70 5 -75 -20 -98 -18 -17 -29 -21 -38 -14 -7 6
-29 16 -49 22 -55 18 -91 65 -119 156 -7 22 -19 56 -28 75 -19 43 -134 199
-191 260 -129 137 -215 221 -321 310 -35 30 -71 62 -80 70 -9 9 -34 29 -55 45
-22 17 -46 36 -53 43 -7 6 -16 12 -20 12 -4 0 -20 12 -37 26 -27 23 -230 164
-273 189 -9 6 -28 17 -42 26 -14 9 -78 44 -143 77 -64 34 -127 68 -140 75 -21
14 -83 39 -189 76 -130 47 -206 75 -245 92 -24 11 -48 19 -53 19 -6 0 -31 9
-56 20 -24 12 -63 25 -87 29 -23 5 -67 16 -97 24 -72 20 -137 34 -235 53 -44
8 -98 19 -120 23 -92 20 -337 45 -665 67 -194 13 -273 14 -452 5 -229 -11
-531 -43 -668 -71 -25 -5 -83 -14 -130 -21 -47 -7 -102 -18 -124 -25 -21 -8
-52 -14 -69 -14 -17 0 -58 -9 -91 -19 -34 -10 -85 -24 -115 -31 -29 -7 -65
-19 -80 -26 -14 -8 -34 -14 -43 -14 -10 0 -37 -9 -60 -19 -24 -11 -108 -40
-187 -66 -155 -50 -309 -125 -473 -230 -26 -16 -67 -41 -90 -55 -59 -35 -305
-199 -353 -235 -45 -34 -95 -78 -168 -148 -28 -26 -56 -51 -61 -55 -6 -4 -31
-32 -56 -62 -25 -30 -75 -85 -112 -122 -36 -37 -70 -73 -75 -80 -4 -8 -29 -32
-55 -53 -27 -22 -48 -44 -48 -51 0 -6 -18 -29 -40 -50 -22 -22 -40 -43 -40
-47 0 -5 -18 -29 -40 -54 -22 -25 -40 -54 -40 -64 0 -11 -4 -19 -9 -19 -5 0
-12 -11 -15 -25 -4 -14 -11 -25 -16 -25 -6 0 -10 -9 -10 -19 0 -10 -7 -21 -15
-25 -8 -3 -15 -12 -15 -21 0 -9 -8 -24 -18 -34 -18 -20 -126 -71 -148 -71 -13
0 -138 -57 -179 -82 -175 -106 -300 -202 -410 -313 -113 -115 -126 -129 -138
-155 -4 -8 -21 -37 -37 -65 -17 -27 -33 -57 -36 -65 -3 -8 -10 -24 -14 -35
-33 -79 -69 -177 -79 -215 -7 -25 -21 -63 -30 -85 -14 -35 -16 -100 -16 -560
0 -543 3 -588 50 -830 9 -44 19 -97 22 -117 3 -21 11 -42 19 -49 8 -6 14 -20
14 -31 0 -11 8 -37 19 -57 10 -20 29 -58 42 -84 52 -105 115 -214 139 -242 10
-11 26 -36 37 -55 10 -19 29 -47 43 -62 38 -41 80 -95 80 -102 0 -7 46 -60 88
-101 17 -18 24 -38 28 -82 13 -166 28 -291 39 -313 7 -14 16 -63 20 -110 17
-205 33 -306 58 -380 8 -25 23 -71 33 -102 9 -32 23 -63 30 -69 8 -6 14 -26
14 -43 0 -18 7 -41 15 -52 8 -10 15 -28 15 -39 0 -24 57 -176 71 -190 5 -5 9
-16 9 -25 0 -9 15 -45 33 -80 19 -36 37 -77 41 -93 3 -15 11 -27 16 -27 6 0
10 -6 10 -14 0 -25 141 -284 162 -297 10 -6 21 -24 52 -84 9 -16 40 -60 69
-97 92 -117 102 -131 106 -140 1 -5 13 -19 25 -32 31 -33 80 -96 85 -107 2 -6
18 -26 37 -44 19 -19 34 -37 34 -41 0 -6 31 -43 91 -110 10 -12 19 -27 19 -33
0 -6 3 -11 8 -11 4 0 32 -32 62 -72 81 -105 222 -242 289 -279 52 -28 179
-138 290 -251 50 -50 82 -73 131 -93 85 -34 127 -53 173 -76 72 -36 78 -29
113 139 14 65 29 121 35 126 13 14 11 42 -4 68 -16 30 -19 33 -117 113 -46 39
-92 77 -100 85 -9 8 -43 38 -75 65 -33 28 -99 88 -146 135 -48 47 -143 139
-210 205 -122 119 -172 172 -239 255 -19 23 -41 49 -49 57 -7 7 -34 42 -59 76
-25 34 -49 64 -54 65 -4 2 -8 8 -8 13 0 5 -29 47 -65 93 -36 46 -65 87 -65 91
0 3 -11 21 -24 38 -36 49 -76 126 -76 147 0 10 -3 20 -7 22 -9 3 -32 51 -56
113 -36 93 -89 236 -97 262 -5 15 -30 87 -55 158 -26 72 -49 144 -52 160 -3
17 -9 35 -13 40 -4 6 -15 42 -24 80 -33 135 -37 150 -47 180 -5 17 -12 98 -16
182 l-6 152 26 6 c15 4 37 1 54 -8 72 -38 116 -57 128 -57 7 0 26 -7 41 -15
16 -8 37 -15 46 -15 9 0 20 -5 23 -10 3 -6 17 -10 30 -10 13 0 27 -5 30 -10 3
-6 19 -10 35 -10 26 0 41 -4 105 -31 11 -4 54 -13 95 -19 119 -17 140 -22 146
-31 3 -5 52 -9 110 -9 80 0 111 -4 129 -16 14 -9 25 -20 25 -25 0 -6 13 -23
30 -39 16 -16 30 -32 30 -36 0 -4 19 -28 43 -53 23 -25 51 -57 62 -71 28 -36
153 -140 168 -140 6 0 23 -12 36 -25 13 -14 30 -25 38 -25 8 0 27 -8 41 -19
15 -10 37 -22 50 -25 12 -4 22 -12 22 -17 0 -5 9 -9 19 -9 11 0 23 -4 26 -10
3 -5 14 -10 24 -10 10 0 24 -7 31 -15 7 -8 27 -15 46 -15 18 0 36 -4 39 -10 3
-5 19 -10 35 -10 16 0 32 -4 35 -10 3 -5 37 -10 74 -10 37 0 72 -5 77 -10 14
-14 308 -14 333 0 11 5 45 10 75 10 31 0 56 5 56 10 0 6 9 10 19 10 11 0 23 5
26 10 3 5 21 10 39 10 19 0 39 7 46 15 7 8 19 15 26 15 8 0 22 4 32 9 70 35
105 51 115 51 5 0 25 11 43 25 18 14 44 25 57 25 13 0 32 9 42 20 10 11 25 20
34 20 9 1 39 14 66 31 28 16 70 39 95 50 25 11 53 24 62 29 10 6 29 10 42 10
14 0 28 4 31 10 3 5 32 10 64 10 31 0 61 4 66 9 14 13 349 32 427 24 35 -3 72
-12 83 -19 11 -8 33 -14 49 -14 38 0 176 -68 247 -121 19 -14 41 -29 49 -33 8
-3 35 -20 60 -36 25 -17 59 -37 77 -45 17 -8 34 -19 38 -25 3 -5 13 -10 21
-10 8 0 33 -9 57 -19 23 -10 73 -27 110 -37 37 -9 70 -21 73 -26 3 -4 65 -8
139 -8 78 0 136 -4 140 -10 3 -5 21 -10 40 -10 19 0 37 5 40 10 3 6 50 10 106
10 59 0 99 4 99 10 0 6 16 10 35 10 19 0 35 5 35 10 0 6 12 10 27 10 24 0 77
21 155 61 10 5 23 9 30 9 7 0 26 11 42 25 16 14 37 25 48 25 10 0 18 4 18 8 0
5 20 19 45 32 25 13 50 29 56 37 6 7 17 13 23 13 22 0 125 97 219 204 20 22
51 57 68 76 l31 35 141 7 c190 10 267 18 267 29 0 5 15 9 34 9 19 0 37 4 40 9
3 4 33 11 67 14 34 3 66 10 72 16 6 6 30 11 53 11 24 0 46 5 49 10 3 6 22 10
41 10 19 0 34 5 34 10 0 6 15 10 34 10 19 0 38 5 41 10 3 6 13 10 21 10 9 0
30 11 48 25 18 14 43 25 56 25 13 0 37 11 55 24 52 40 57 28 52 -145 -4 -148
-19 -252 -44 -294 -6 -11 -40 -50 -75 -87 -227 -239 -334 -348 -343 -348 -6 0
-22 -12 -36 -28 -14 -15 -45 -43 -69 -62 -25 -19 -58 -47 -75 -62 -94 -83
-193 -158 -210 -158 -3 0 -21 -11 -39 -25 -18 -14 -38 -25 -44 -25 -7 0 -12
-4 -12 -9 0 -5 -17 -16 -37 -25 -21 -9 -49 -23 -63 -31 -14 -8 -38 -20 -55
-28 -16 -7 -39 -18 -50 -24 -136 -75 -261 -91 -725 -92 -151 -1 -376 -6 -500
-12 -203 -11 -229 -14 -268 -35 l-44 -23 -24 24 c-28 29 -30 46 -7 83 31 50
72 79 181 134 42 20 102 72 102 87 0 4 -10 18 -21 30 -34 36 -96 25 -151 -27
-123 -115 -151 -132 -218 -132 -34 0 -51 7 -89 38 -63 51 -97 74 -156 105
-107 56 -280 114 -367 122 -99 10 -106 13 -134 57 -28 43 -28 58 -8 230 8 74
-10 108 -60 108 -66 0 -78 -44 -54 -205 11 -79 11 -81 -15 -122 -33 -52 -46
-59 -129 -66 -71 -6 -211 -45 -288 -78 -96 -42 -120 -54 -120 -61 0 -5 -4 -8
-10 -8 -12 0 -133 -85 -150 -105 -8 -9 -29 -15 -59 -15 -55 0 -109 31 -199
115 -69 64 -115 79 -157 51 -53 -35 -22 -78 103 -142 91 -47 162 -112 162
-150 0 -9 -17 -44 -37 -78 -106 -172 -148 -350 -131 -554 3 -29 -2 -38 -39
-64 -47 -35 -91 -46 -218 -57 -66 -5 -98 -12 -118 -26 -36 -27 -35 -60 3 -80
40 -21 55 -19 161 15 77 25 107 30 168 28 l75 -3 28 -40 c15 -22 27 -46 28
-54 0 -7 18 -40 40 -73 22 -33 40 -62 40 -63 0 -6 75 -88 125 -137 28 -26 77
-66 110 -88 33 -22 65 -43 71 -47 5 -5 19 -13 30 -19 14 -8 20 -24 22 -63 3
-44 -1 -58 -22 -86 -15 -19 -26 -39 -26 -45 0 -6 -7 -13 -15 -16 -8 -4 -15
-12 -15 -19 0 -7 -7 -18 -16 -26 -8 -7 -24 -29 -34 -48 -18 -36 -18 -37 4 -64
51 -63 119 -15 156 110 20 65 51 113 97 145 l41 30 104 -27 c92 -24 121 -27
280 -27 172 0 220 6 331 39 47 15 49 14 90 -13 23 -15 49 -37 57 -48 23 -32
60 -116 60 -135 0 -10 14 -37 30 -59 23 -33 37 -42 59 -42 62 0 81 67 36 126
-14 18 -25 37 -25 42 0 6 -7 12 -15 16 -8 3 -15 12 -15 21 0 8 -4 15 -10 15
-16 0 -50 77 -50 113 0 31 24 67 45 67 11 0 133 87 174 124 56 52 74 70 114
116 l38 45 20 -24 c11 -14 19 -39 19 -61 0 -61 85 -157 142 -159 9 -1 38 -10
64 -21 45 -20 66 -21 532 -20 324 0 490 4 498 11 8 6 129 14 307 19 302 9 393
16 403 31 3 5 25 9 49 9 24 0 47 4 50 10 3 5 26 10 49 10 25 0 49 6 55 14 6 7
34 16 62 19 28 4 64 13 81 22 17 8 37 15 43 15 7 0 23 11 36 25 13 13 32 25
42 25 9 0 26 9 37 20 11 11 26 20 33 20 7 0 27 12 44 28 73 64 128 108 159
128 19 11 48 33 64 47 16 15 34 27 40 27 5 0 10 4 10 8 0 11 131 118 155 126
29 10 75 53 75 71 0 8 9 15 20 15 13 0 32 17 52 45 17 24 44 49 59 54 15 5 35
21 44 34 26 40 319 337 333 337 6 0 12 6 13 13 0 6 30 37 66 67 36 30 73 66
82 80 9 14 26 36 38 50 13 14 23 30 23 36 0 7 11 19 25 28 14 9 25 22 25 30 0
7 9 21 21 32 11 10 37 48 57 84 20 36 46 74 59 85 13 12 23 32 23 48 0 15 3
27 8 27 9 0 42 58 42 75 0 7 7 15 15 19 8 3 15 14 15 25 0 11 5 21 11 23 6 2
14 65 19 163 5 88 14 208 20 267 8 74 8 135 1 205 -12 114 -5 780 10 951 5 62
7 161 4 220 -4 70 -1 127 7 165 l13 59 120 1 c117 2 121 3 165 33 93 65 85 11
85 569 0 346 -3 496 -11 506 -6 8 -14 26 -18 41 -6 26 -60 74 -106 95 -64 28
-86 34 -153 43 -68 10 -104 30 -91 51 3 5 5 61 5 126 0 94 -3 119 -16 125 -11
7 -15 28 -15 89 0 44 4 88 8 97 13 25 -3 451 -17 465 -15 15 -15 852 0 917 19
78 33 346 31 595 -1 278 -15 420 -52 552 -18 64 -106 149 -205 198 -33 17 -61
33 -63 38 -2 4 -9 7 -16 7 -26 0 -125 56 -118 67 4 6 44 31 90 55 45 23 101
58 125 77 42 35 127 133 127 148 0 4 11 28 24 53 48 91 70 296 45 407 -18 79
-41 147 -55 164 -8 8 -14 19 -14 24 0 13 -69 96 -126 150 -61 59 -73 69 -139
116 -49 35 -65 43 -170 89 -27 12 -58 26 -67 31 -10 5 -28 9 -41 9 -13 0 -27
4 -32 9 -31 29 -350 41 -462 17z m322 -326 c22 -5 53 -12 70 -16 88 -21 278
-193 308 -279 27 -79 23 -195 -9 -259 -86 -172 -217 -246 -435 -246 -163 0
-263 37 -354 133 -41 43 -45 48 -83 117 -42 76 -38 240 6 309 43 66 115 144
149 161 15 8 35 19 43 26 19 15 126 52 165 57 54 7 99 6 140 -3z m128 -1264
c112 -27 220 -115 272 -221 l29 -60 2 -695 c0 -382 5 -904 9 -1160 4 -311 3
-526 -4 -650 -13 -203 -13 -204 -79 -216 -45 -9 -61 9 -72 77 -23 141 -46 219
-80 279 -5 8 -18 32 -30 54 -82 150 -236 333 -313 369 -68 33 -65 16 -70 407
-3 195 -10 630 -17 965 -15 754 -12 811 45 831 99 34 216 41 308 20z m-3958
-456 c306 -19 432 -37 710 -102 222 -52 558 -178 800 -299 232 -117 282 -147
375 -228 246 -216 306 -272 400 -375 129 -142 159 -217 73 -181 -20 8 -44 15
-55 15 -10 0 -29 6 -41 14 -12 8 -53 19 -92 26 -38 6 -86 16 -105 20 -19 5
-66 14 -105 20 -38 7 -107 20 -152 31 -45 10 -110 23 -145 28 -277 41 -502 66
-723 81 -82 6 -206 15 -275 20 -427 34 -595 40 -1045 39 -258 -1 -515 -5 -570
-10 -55 -5 -118 -9 -140 -9 -22 0 -98 -6 -170 -14 -71 -8 -179 -20 -240 -26
-328 -33 -594 -67 -890 -114 -49 -8 -133 -22 -185 -30 -114 -18 -264 -50 -305
-64 -44 -16 -159 -48 -242 -67 -72 -17 -102 -14 -85 8 5 7 16 31 25 54 33 84
155 238 265 336 58 50 110 97 116 102 52 49 198 159 262 197 95 56 267 141
419 208 163 72 450 162 625 196 41 8 84 19 95 24 11 5 65 16 120 25 55 9 114
20 130 25 146 46 781 74 1150 50z m370 -1229 c94 -5 231 -14 305 -20 74 -6
198 -15 275 -21 132 -10 202 -17 405 -41 89 -11 199 -29 335 -56 44 -8 103
-19 130 -23 28 -4 91 -17 140 -28 50 -11 146 -30 215 -42 136 -23 323 -63 410
-87 30 -8 73 -19 95 -23 22 -5 58 -16 80 -26 22 -9 54 -20 70 -25 104 -27 305
-114 400 -174 22 -13 54 -32 70 -41 97 -54 288 -246 335 -338 66 -127 77 -151
98 -211 57 -169 72 -347 72 -869 -1 -381 -7 -485 -40 -667 -28 -157 -211 -427
-411 -605 -44 -39 -198 -144 -212 -144 -6 0 -18 -6 -26 -14 -9 -8 -54 -28
-101 -46 -47 -18 -112 -42 -145 -55 -33 -13 -116 -42 -185 -64 -286 -95 -358
-112 -618 -141 -112 -13 -234 -1 -422 42 -120 27 -330 121 -420 187 -66 48
-262 246 -337 339 -41 52 -82 102 -91 112 -36 38 -89 98 -132 150 -25 29 -63
75 -85 101 -51 60 -184 249 -288 409 -45 69 -86 130 -92 137 -5 6 -26 35 -45
63 -160 234 -219 288 -381 346 -130 47 -338 26 -436 -44 -17 -12 -35 -22 -40
-22 -4 0 -37 -33 -73 -73 -36 -39 -90 -99 -121 -132 -52 -56 -129 -156 -129
-168 0 -5 -81 -129 -90 -137 -3 -3 -23 -32 -44 -65 -21 -33 -47 -72 -57 -87
-11 -15 -19 -30 -19 -33 0 -7 -50 -75 -66 -90 -18 -17 -114 -142 -114 -149 0
-17 -95 -134 -192 -238 -10 -10 -18 -22 -18 -26 0 -9 -235 -240 -308 -302 -29
-25 -72 -58 -95 -73 -23 -15 -48 -34 -57 -41 -29 -25 -199 -106 -223 -106 -7
0 -18 -5 -24 -11 -18 -18 -182 -55 -313 -70 -96 -11 -251 -2 -380 22 -30 6
-80 15 -110 20 -141 26 -347 88 -570 172 -87 33 -267 127 -304 160 -11 9 -24
17 -29 17 -37 0 -306 257 -371 354 -50 75 -86 143 -86 160 0 9 -4 16 -10 16
-5 0 -10 6 -10 13 0 7 -10 33 -22 58 -12 24 -25 60 -29 79 -4 19 -12 53 -18
75 -23 91 -41 196 -51 299 -14 154 -12 548 4 761 22 285 42 379 104 503 48 96
210 285 296 347 73 52 234 136 341 179 39 15 85 34 104 42 18 8 59 21 90 29
74 19 161 42 241 66 101 29 221 60 270 69 25 5 72 15 106 24 34 8 88 20 120
25 32 6 90 17 129 26 38 8 83 15 98 15 16 0 36 4 45 9 10 5 53 15 97 21 44 6
105 15 135 20 72 10 226 36 320 54 41 8 113 19 160 26 47 6 112 15 145 20 33
5 116 15 185 21 69 6 187 17 264 25 76 8 182 14 235 15 53 1 134 5 181 9 109
10 1111 4 1335 -9z m4200 -1691 c3 -5 20 -10 36 -10 68 0 65 12 65 -304 -1
-324 2 -313 -83 -327 -26 -4 -127 -8 -224 -8 -136 -1 -179 2 -195 13 -18 14
-19 29 -19 309 0 163 4 299 8 303 5 5 84 10 178 12 93 3 169 8 169 13 0 12 57
11 65 -1z m-4860 -490 c12 -11 26 -20 33 -20 6 0 24 -17 39 -37 15 -21 32 -41
36 -44 5 -4 14 -15 20 -27 7 -11 32 -53 56 -93 66 -109 116 -211 135 -276 10
-32 21 -65 25 -73 5 -9 12 -31 15 -50 4 -19 16 -69 27 -110 31 -115 46 -178
63 -260 9 -41 25 -120 36 -175 29 -138 29 -234 -1 -292 -31 -61 -99 -128 -162
-159 -45 -23 -69 -27 -211 -36 -87 -5 -261 -8 -385 -6 l-226 3 -66 31 c-72 35
-127 90 -174 175 -28 50 -30 61 -29 154 1 55 8 127 17 160 8 33 20 85 27 115
14 63 38 146 51 175 4 11 15 46 24 77 9 32 21 60 26 63 5 4 9 18 9 33 0 15 7
36 15 46 8 11 15 32 15 48 0 15 4 28 10 28 5 0 12 12 16 28 12 55 124 286 158
327 117 138 188 201 246 217 44 12 133 -1 155 -22z m4521 -531 c38 -35 40
-112 31 -1194 -3 -412 -6 -479 -21 -540 -10 -39 -24 -84 -32 -100 -7 -17 -18
-44 -24 -60 -24 -64 -44 -105 -52 -105 -4 0 -8 -5 -8 -10 0 -6 -16 -35 -35
-65 -23 -37 -41 -55 -55 -55 -11 0 -64 42 -126 101 -58 55 -138 122 -178 147
-39 25 -72 49 -74 54 -2 4 -9 8 -15 8 -7 0 -28 14 -47 31 -19 17 -45 37 -57
46 -31 21 -29 57 5 102 45 58 52 85 52 194 0 69 4 107 13 115 9 10 12 81 13
280 l1 268 74 71 c41 39 98 92 127 119 45 41 142 179 142 202 0 5 11 32 25 60
14 29 25 58 25 66 0 7 7 19 15 26 8 7 15 16 15 21 0 5 12 34 26 66 14 32 29
67 34 78 5 11 12 31 16 45 16 62 62 74 110 29z m-5570 -544 c3 -13 3 -46 0
-72 -15 -119 -18 -258 -6 -316 19 -96 66 -182 142 -259 37 -37 72 -68 78 -68
17 0 70 -42 70 -57 0 -7 -12 -15 -27 -19 -31 -7 -116 -48 -208 -100 -252 -142
-424 -189 -606 -164 -46 6 -87 14 -92 17 -5 3 -41 13 -80 23 -117 29 -192 69
-293 156 -30 26 -84 94 -84 105 0 5 27 9 60 9 87 0 206 35 318 94 116 60 218
120 239 141 8 9 31 28 51 43 21 15 42 32 48 37 6 6 28 24 49 40 21 17 49 43
64 59 14 16 33 37 41 46 24 25 130 169 130 175 0 4 11 21 25 39 14 18 25 36
25 40 0 11 34 55 42 56 4 0 10 -11 14 -25z m1926 -37 c18 -24 36 -47 41 -53 4
-5 25 -35 47 -65 56 -77 106 -135 169 -194 30 -28 64 -60 75 -72 12 -11 39
-33 61 -49 22 -16 45 -34 50 -40 6 -6 39 -28 75 -49 36 -20 72 -41 80 -46 18
-12 126 -60 195 -88 28 -11 77 -23 110 -27 90 -10 155 -34 155 -55 0 -19 -80
-92 -140 -127 -80 -48 -188 -100 -230 -112 -25 -7 -53 -17 -63 -22 -10 -6 -69
-14 -130 -20 -108 -9 -207 -2 -277 20 -14 5 -43 14 -65 20 -41 13 -326 150
-335 162 -3 3 -19 14 -37 23 -18 9 -37 25 -43 36 -10 19 2 38 74 115 31 34
101 148 116 190 17 49 20 81 26 254 4 90 1 143 -7 162 -12 30 -5 79 10 79 5 0
24 -19 43 -42z m2905 -1466 c55 -30 109 -72 164 -126 93 -93 109 -110 109
-120 0 -4 13 -21 30 -39 38 -40 38 -67 0 -107 -16 -18 -30 -34 -30 -37 0 -2
-11 -19 -25 -37 -14 -18 -25 -38 -25 -44 0 -12 -31 -32 -49 -32 -5 0 -41 31
-78 69 -37 38 -123 114 -191 169 -67 56 -139 117 -160 137 -20 19 -45 35 -55
35 -41 0 -29 32 39 101 38 39 78 74 89 79 35 16 97 -1 182 -48z m-4013 -300
c4 -10 2 -100 -4 -199 -12 -227 -23 -253 -105 -253 -27 0 -53 8 -77 25 -20 14
-40 25 -43 25 -3 0 -51 29 -106 65 -55 36 -102 65 -105 65 -18 0 -84 54 -84
68 0 41 206 160 344 198 105 29 172 31 180 6z m340 2 c112 -26 227 -79 326
-150 55 -39 63 -67 25 -88 -10 -6 -25 -17 -33 -23 -7 -7 -17 -13 -22 -13 -5 0
-37 -19 -72 -42 -35 -23 -79 -52 -98 -63 -19 -12 -54 -34 -77 -48 -52 -33
-109 -36 -146 -7 -28 23 -28 20 -47 273 -13 164 -10 177 42 177 17 0 62 -7
102 -16z m3146 -34 c14 -11 29 -20 33 -20 9 0 139 -86 178 -117 90 -72 233
-240 245 -288 6 -25 -15 -51 -80 -100 -14 -11 -43 -36 -64 -55 -20 -19 -62
-53 -92 -75 -30 -22 -59 -43 -65 -47 -5 -5 -28 -20 -50 -35 -22 -14 -67 -44
-100 -67 -59 -41 -274 -150 -390 -199 -157 -65 -333 -105 -514 -117 -74 -5
-140 -11 -148 -14 -7 -3 -172 -6 -366 -7 -384 -1 -429 4 -492 55 -29 23 -29
25 -12 43 27 31 21 59 -19 83 l-36 23 4 132 c3 126 4 133 30 167 69 90 150
106 593 118 171 4 333 11 360 15 119 16 368 94 399 125 6 6 16 10 22 10 12 0
212 130 240 155 6 6 33 28 60 50 27 21 81 72 119 112 76 79 101 88 145 53z
m-4076 -344 c17 -13 43 -34 57 -47 14 -13 40 -35 59 -49 103 -77 189 -152 195
-170 16 -51 -31 -94 -127 -115 -35 -7 -117 -28 -183 -46 -66 -17 -137 -34
-157 -37 -34 -4 -39 -1 -49 24 -18 47 -3 174 33 279 5 17 12 41 16 55 3 14 20
49 38 78 39 60 67 67 118 28z m1503 -53 c61 -119 77 -182 77 -303 l1 -105 -40
1 c-22 0 -85 13 -140 29 -55 15 -135 35 -178 45 -43 10 -93 25 -111 34 -28 13
-56 50 -56 75 0 18 43 58 140 131 18 14 74 58 123 98 120 98 132 97 184 -5z
m-692 -239 c50 -51 51 -55 30 -129 -13 -44 -21 -55 -53 -70 -20 -10 -45 -22
-54 -26 -29 -15 -65 -10 -122 15 -45 20 -58 32 -71 63 -34 80 -32 90 21 144
l48 49 78 0 79 0 44 -46z m-428 -296 c33 -31 29 -62 -21 -164 -67 -137 -96
-200 -96 -211 0 -6 -13 -25 -30 -43 l-29 -31 -33 18 c-94 52 -193 149 -273
269 -30 45 -55 86 -55 91 0 26 41 43 121 52 46 6 116 15 154 21 200 33 225 33
262 -2z m838 11 c39 -6 93 -14 120 -19 28 -5 77 -13 109 -17 93 -13 94 -20 19
-157 -51 -94 -267 -278 -308 -263 -7 3 -41 65 -77 139 -135 279 -128 259 -100
295 34 44 65 47 237 22z m-472 -163 c26 -24 83 -108 117 -171 12 -24 34 -57
78 -119 32 -47 40 -80 22 -91 -93 -57 -498 -51 -558 9 -12 11 -11 18 5 46 26
46 34 59 71 112 17 26 32 49 32 51 0 13 103 158 122 171 33 23 81 20 111 -8z"/>
<path d="M4670 7670 c-30 -5 -118 -14 -195 -20 -77 -6 -187 -16 -245 -20 -58
-5 -141 -14 -185 -20 -44 -6 -121 -15 -172 -19 -50 -5 -95 -11 -100 -14 -9 -6
-133 -25 -238 -37 -133 -15 -360 -51 -380 -60 -11 -5 -49 -11 -85 -14 -130
-11 -221 -27 -440 -80 -136 -32 -255 -60 -355 -81 -181 -38 -410 -106 -475
-140 -14 -7 -47 -24 -75 -37 -109 -53 -188 -113 -252 -191 -16 -20 -57 -103
-78 -157 -10 -25 -21 -54 -25 -65 -8 -18 -20 -63 -49 -171 -30 -114 -36 -797
-7 -849 6 -11 11 -51 11 -88 0 -55 4 -71 18 -82 15 -10 17 -21 11 -50 -12 -66
61 -264 114 -305 12 -10 22 -27 22 -37 0 -17 42 -74 92 -125 33 -33 189 -158
198 -158 5 0 33 -17 63 -37 73 -52 203 -107 337 -143 25 -7 59 -16 75 -21 294
-80 621 -118 753 -88 26 5 67 15 92 20 80 19 174 62 232 107 89 69 278 259
278 280 0 4 21 30 46 57 26 28 69 83 97 123 28 39 54 72 59 72 4 0 8 5 8 11 0
7 35 55 78 108 80 100 173 225 185 251 4 8 16 29 26 45 11 17 20 36 20 42 1
12 67 107 99 143 7 8 38 49 69 90 202 273 331 408 435 458 37 18 70 32 73 32
4 0 21 6 38 14 54 25 248 60 327 59 174 -2 353 -58 477 -150 111 -83 235 -229
375 -441 42 -64 112 -163 155 -220 43 -57 83 -111 88 -120 6 -9 26 -37 45 -61
56 -73 122 -163 151 -209 15 -23 110 -134 210 -245 101 -111 188 -208 194
-215 18 -22 129 -109 166 -130 20 -11 45 -25 55 -31 101 -56 280 -101 405
-101 195 0 642 103 844 194 17 8 55 24 85 37 114 48 273 163 321 232 13 17 40
51 60 75 60 69 118 205 119 278 0 22 5 45 12 52 23 23 29 79 58 557 15 255 -3
501 -49 675 -48 182 -56 202 -114 294 -30 47 -148 147 -217 184 -138 72 -138
72 -158 72 -10 0 -22 4 -27 9 -14 12 -129 53 -265 94 -111 34 -145 42 -275 68
-33 6 -80 17 -104 25 -25 8 -53 14 -64 14 -10 0 -55 8 -100 19 -45 10 -113 24
-152 31 -38 6 -101 18 -140 25 -125 25 -268 47 -356 55 -48 4 -91 10 -97 14
-6 4 -51 7 -99 7 -56 1 -93 6 -103 14 -9 7 -58 15 -115 19 -55 4 -136 11 -180
17 -116 14 -317 28 -580 39 -126 5 -270 14 -320 19 -108 11 -727 12 -805 1z
m1100 -279 c63 -5 174 -14 245 -20 72 -5 191 -17 265 -26 74 -9 187 -20 250
-26 239 -21 492 -51 570 -69 25 -5 88 -17 140 -25 52 -9 127 -22 165 -31 39
-8 99 -21 135 -29 36 -7 117 -23 180 -34 247 -44 377 -74 428 -100 9 -5 41
-18 71 -30 131 -51 268 -150 327 -236 68 -99 103 -236 125 -480 11 -126 2
-684 -11 -700 -5 -6 -12 -31 -16 -55 -19 -127 -54 -213 -127 -307 -76 -99
-191 -185 -309 -232 -32 -13 -58 -27 -58 -32 0 -5 -15 -9 -33 -9 -18 0 -38 -5
-44 -11 -6 -6 -29 -15 -50 -19 -21 -4 -62 -13 -92 -19 -30 -6 -65 -18 -78 -26
-12 -8 -42 -15 -66 -15 -27 0 -49 -6 -57 -15 -10 -12 -42 -15 -166 -15 -84 0
-155 4 -159 9 -3 5 -19 12 -36 16 -16 4 -62 23 -102 42 -112 56 -317 270 -446
466 -18 29 -48 68 -65 88 -50 58 -66 79 -66 87 0 4 -12 21 -27 38 -16 17 -34
42 -42 57 -8 15 -26 41 -40 57 -27 30 -36 42 -96 120 -19 25 -40 52 -47 60 -7
9 -20 29 -28 45 -8 17 -19 36 -25 42 -89 112 -225 295 -225 305 0 4 -6 8 -14
8 -7 0 -16 8 -20 18 -17 47 -89 143 -165 219 -39 40 -154 123 -169 123 -6 0
-12 5 -14 12 -6 17 -198 83 -293 100 -83 15 -555 22 -569 8 -5 -5 -26 -10 -45
-10 -42 0 -120 -20 -176 -45 -22 -10 -49 -21 -60 -25 -11 -4 -58 -26 -105 -50
-91 -45 -141 -82 -152 -111 -4 -11 -13 -19 -21 -19 -7 0 -32 -21 -54 -47 -22
-27 -52 -59 -65 -73 -14 -14 -33 -39 -42 -57 -9 -18 -25 -37 -36 -43 -11 -6
-20 -17 -20 -25 0 -8 -5 -15 -10 -15 -6 0 -14 -10 -19 -22 -5 -13 -29 -50 -53
-83 -24 -33 -53 -75 -63 -92 -11 -18 -22 -33 -25 -33 -4 0 -17 -20 -29 -45
-12 -25 -27 -45 -32 -45 -5 0 -9 -5 -9 -11 0 -6 -22 -39 -50 -74 -27 -35 -50
-66 -50 -69 0 -4 -33 -50 -72 -103 -40 -52 -77 -104 -83 -114 -5 -10 -13 -19
-17 -19 -5 0 -8 -4 -8 -8 0 -5 -18 -28 -40 -52 -22 -24 -40 -49 -40 -57 0 -7
-7 -16 -15 -19 -8 -4 -15 -10 -15 -15 0 -4 -48 -72 -107 -149 -60 -78 -117
-155 -128 -170 -49 -67 -223 -188 -271 -190 -12 0 -27 -7 -34 -15 -17 -21
-290 -22 -323 -1 -12 7 -62 19 -112 26 -49 7 -94 16 -100 20 -5 4 -23 10 -40
12 -191 31 -456 170 -557 292 -28 34 -54 63 -58 66 -14 10 -93 187 -112 250
-30 101 -35 138 -53 410 -17 254 -17 256 5 445 34 290 58 370 137 450 60 61
163 111 378 183 229 77 311 95 604 137 58 9 140 22 181 30 41 8 165 28 275 45
110 17 227 35 260 40 33 6 132 19 220 30 88 11 187 24 220 29 33 5 107 14 165
21 58 6 132 15 165 20 59 10 412 46 510 54 92 6 919 -4 1035 -13z"/>
</g>
</svg>
